<?xml version="1.0" encoding="utf-8"?>
<svg version="1.1" x="0" y="0" width="709.24" height="417.01" viewBox="0, 0, 709.24, 417.01" xmlns="http://www.w3.org/2000/svg">
  <g id="Layer_1">
    <path d="M335.657,95.902 C335.657,119.278 316.21,138.228 292.22,138.228 C268.23,138.228 248.783,119.278 248.783,95.902 C248.783,72.526 268.23,53.576 292.22,53.576 C316.21,53.576 335.657,72.526 335.657,95.902 z" fill="#FFFFFF"/>
    <g>
      <path d="M 640.105 409.996 C 632.682 405.993 625.798 396.394 624.164 388.226 C 623.35 384.155 618.595 384.896 616.402 390.768 C 612.503 401.209 606.756 406.799 596.944 406.842 C 588.818 406.877 584.816 402.155 584.779 395.18 C 584.762 391.864 581.292 391.735 575.54 394.519 C 572.256 396.109 567.451 396.115 561.159 396.416 C 552.467 396.831 555.981 397.207 552.816 394.042 C 549.77 390.996 550.725 390.812 551.211 384.755 C 551.572 380.261 554.661 380.214 556.336 377.949 C 560.062 372.908 574.238 364.54 587.499 359.578 C 592.344 357.765 594.54 354.598 598.376 348.763 C 602.379 342.674 600.787 341.426 600.265 337.017 C 599.953 334.385 598.033 325.473 595.463 318.947 C 592.893 312.422 589.912 306.557 589.463 305.38 C 588.887 303.871 586.467 301.915 581.773 300.398 C 575.026 298.218 569.577 294.746 565.558 291.085 L 561.489 290.874 L 556.203 292.81 C 554.237 294.536 551.6 295.019 550.564 295.019 C 547.095 295.019 545.573 297.604 543.422 301.758 C 541.703 305.077 540.799 308.253 540.442 317.686 L 542.166 330.106 L 542.559 332.644 C 546.614 334.186 552.835 339.892 554.159 343.637 C 554.958 345.898 551.938 353.075 544.833 355.228 C 542.908 355.811 540.57 356.787 536.576 357.377 C 532.581 357.968 526.607 358.7 522.985 359.888 C 517.334 361.743 514.218 364.348 508.51 370.307 C 500.673 378.487 496 379.727 488.304 379.758 C 472.727 379.82 467.035 373.08 472.605 365.127 C 473.486 363.869 471.104 361.557 470.911 361.373 C 470.717 361.19 467.209 361.171 464.184 361.739 C 449.127 364.563 446.715 359.397 444.722 353.702 C 443.296 349.625 444.814 349.34 449.767 344.904 C 452.683 342.293 455.926 340.586 457.64 340.227 C 459.353 339.868 463.026 337.085 464.732 335.463 C 468.801 331.595 478.249 331.254 498.497 330.829 C 508.37 330.622 515.224 328.916 516.226 328.084 C 518.248 326.406 518.019 320.859 515.66 311.634 C 513.07 301.505 508.321 291.989 502.603 287.624 C 494.435 281.387 492.228 276.18 495.567 261.781 C 496.43 258.06 497.744 253.29 497.317 252.915 C 496.89 252.54 489.175 251.115 481.475 250.468 C 473.775 249.82 462.994 248.838 457.344 248.007 C 451.694 247.175 446.67 245.884 446.179 246.187 C 445.688 246.49 439.462 245.021 433.47 243.776 C 416.988 240.349 408.139 237.815 394.938 230.949 C 381.881 224.157 379.733 221.937 359.808 206.224 C 352.485 200.449 343.106 194.092 340.001 191.892 C 336.896 189.692 333.345 186.399 331.593 184.984 C 327.756 181.886 318.549 179.149 309.724 178.315 C 294.782 176.903 287.011 175.303 277.559 172.031 C 260.323 166.064 250.005 161.687 239.104 155.718 L 228.425 150.21 L 217.995 151.387 C 196.32 153.524 165.881 158.731 155.498 162.539 C 151.993 163.824 144.624 167.607 138.574 169.463 C 120.975 174.859 101.633 182.602 85.49 190.551 C 77.24 194.613 65.933 199.761 60.158 202.043 C 54.383 204.324 48.603 206.326 47.924 206.724 C 44.141 208.941 12.476 222.109 8.823 222.109 C 6.539 222.109 6.404 221.116 7.145 218.82 C 8.04 216.042 15.065 209.282 22.118 204.489 C 35.644 195.297 56.491 183.693 88.121 167.524 C 124.353 149.003 145.985 139.696 156.054 135.098 C 181.15 123.636 205.532 110.729 208.579 107.641 C 211.729 104.448 220.027 85.808 221.061 83.233 C 222.38 79.95 227.842 64.686 232.11 56.384 C 237.347 46.196 245.276 36.244 252.004 31.387 C 272.788 16.383 282.71 12.131 300.138 14.077 C 311.045 15.295 318.059 16.306 330.518 21.206 C 343.375 26.262 350.785 30.098 369.918 41.604 C 388.664 52.877 390.671 51.507 404.559 48.176 C 415.586 45.532 426.865 41.494 439.471 34.447 C 490.28 6.04 547.49 -1.395 594.1 13.385 C 618.736 21.197 642.684 37.364 661.677 59.031 C 670.621 69.234 683.83 87.745 688.925 97.867 C 706.142 132.073 708.483 175.361 694.461 217.264 C 685.621 243.682 671.85 264.087 655.733 274.85 C 651.888 277.417 647.67 282.389 646.431 284.894 C 645.383 287.012 643.045 289.604 641.075 291.906 C 637.477 296.109 628.381 300.252 625.777 301.722 C 624.155 302.637 624.17 312.383 626.407 330.57 L 628.988 342.423 L 633.9 350.362 C 640.658 357.7 641.917 359.562 645.343 369.288 C 646.743 373.264 649.926 378.198 652.35 380.721 C 657.753 386.344 659.34 389.062 659.816 396.573 C 660.151 401.86 659.125 401.646 657.48 404.253 C 653.404 410.716 646.141 413.74 639.453 410.133 L 640.105 409.996 Z M 302.384 130.57 C 312.477 127.573 319.632 121.283 324.133 111.453 C 332.242 93.74 323.083 72.104 304.492 65.055 C 299.743 63.254 297.601 63.029 290.102 63.54 C 279.379 64.272 274.949 66.537 266.946 75.381 C 259.87 83.201 258.019 88.566 258.621 99.522 C 259.298 111.858 263.931 119.895 273.829 125.908 C 284.587 132.444 292.002 133.654 302.384 130.571 L 302.384 130.57 Z M 276.794 125.786 C 270.57 122.846 268.411 119.984 268.416 114.682 C 268.427 103.046 281.451 98.298 289.684 106.928 C 295.088 112.592 295.887 119.53 291.662 124.095 C 287.771 128.3 283.214 128.819 276.794 125.786 Z M 284.412 118.609 C 284.412 116.556 279.936 112.154 277.849 112.154 C 276.551 112.154 276.338 112.745 276.858 114.904 C 277.223 116.417 278.258 118.217 279.158 118.904 C 281.427 120.637 284.412 120.469 284.412 118.609 Z" fill="#F8DA56"/>
      <path d="M 639.766 409.815 C 632.343 405.812 625.957 395.987 624.323 387.819 C 623.509 383.748 618.618 384.941 616.425 390.813 C 612.526 401.254 607.412 406.346 597.6 406.389 C 589.474 406.424 584.748 403.083 584.711 396.108 C 584.694 392.792 581.609 391.69 575.857 394.474 C 572.573 396.064 568.968 396.771 562.676 397.072 C 553.984 397.487 556.502 397.909 553.337 394.744 C 550.291 391.698 551.268 390.359 551.754 384.302 C 552.115 379.808 553.936 380.939 555.611 378.674 C 559.337 373.633 573.989 364.223 587.25 359.261 C 592.095 357.448 594.178 354.824 598.014 348.989 C 602.017 342.9 601.224 341.117 600.702 336.708 C 600.39 334.076 597.687 326.128 595.117 319.602 C 592.547 313.077 590.24 307.34 589.791 306.163 C 589.215 304.654 585.994 301.915 581.3 300.398 C 574.553 298.218 569.686 294.673 565.667 291.012 L 561.489 290.874 L 556.822 292.537 C 554.856 294.263 552.347 294.673 551.311 294.673 C 547.842 294.673 545.264 297.968 543.113 302.122 C 541.394 305.441 540.999 308.635 540.642 318.068 L 542.166 330.106 L 542.067 332.753 C 546.122 334.295 553.315 339.901 554.56 343.673 C 556.725 350.232 551.863 353.105 544.758 355.258 C 542.833 355.841 542.004 356.395 538.01 356.985 C 534.015 357.576 526.667 358.926 523.045 360.114 C 517.394 361.969 514.671 364.318 508.963 370.277 C 501.126 378.457 495.94 379.712 488.244 379.743 C 472.667 379.805 466.446 372.989 472.016 365.036 C 472.897 363.778 470.455 362.87 470.262 362.686 C 470.068 362.503 466.876 361.171 463.851 361.739 C 448.794 364.563 445.613 357.767 444.602 353.038 C 443.699 348.815 445.372 349.627 450.325 345.191 C 453.241 342.58 456.017 340.752 457.731 340.393 C 459.444 340.034 463.252 337.462 464.958 335.84 C 469.027 331.972 478.445 331.375 498.693 330.95 C 508.566 330.743 515.677 329.007 516.679 328.175 C 518.701 326.497 518.14 320.754 515.781 311.529 C 513.191 301.4 508.57 292.131 502.852 287.766 C 494.684 281.529 492.582 276.18 495.921 261.781 C 496.784 258.06 498.241 253.539 497.814 253.164 C 497.387 252.789 489.474 250.916 481.774 250.269 C 474.074 249.621 463.678 249.146 458.028 248.315 C 452.378 247.483 448.546 246.985 448.055 247.288 C 447.564 247.591 443.569 246.748 443.385 246.306 C 443.2 245.864 439.206 244.947 433.214 243.702 C 416.732 240.275 408.238 237.604 395.037 230.738 C 381.98 223.946 379.601 221.738 359.676 206.025 C 352.353 200.25 343.557 193.527 340.452 191.327 C 337.347 189.127 334.432 186.566 332.68 185.151 C 328.843 182.053 318.437 179.038 309.612 178.204 C 294.67 176.792 287.011 175.347 277.559 172.075 C 260.323 166.108 250.697 161.575 239.796 155.606 L 228.09 150.188 L 217.153 150.966 C 195.478 153.103 165.502 159.11 155.414 163.339 C 151.971 164.782 143.95 167.649 137.9 169.505 C 120.301 174.901 101.212 182.686 85.069 190.635 C 76.819 194.697 66.27 199.213 60.495 201.495 C 54.72 203.776 48.218 206.275 47.544 206.682 C 43.803 208.941 12.227 222.413 8.574 222.413 C 6.29 222.413 6.293 219.957 7.034 217.661 C 7.929 214.883 15.548 209.242 22.601 204.449 C 36.127 195.257 56.169 183.831 88.075 167.938 C 124.498 149.795 146.3 139.812 156.369 135.214 C 181.465 123.752 205.022 110.51 208.069 107.422 C 211.219 104.229 220.053 85.66 221.127 83.101 C 222.644 79.488 227.182 64.884 231.45 56.582 C 236.687 46.394 246.384 34.163 251.386 30.722 C 271.138 17.132 285.757 12.473 298.998 12.937 C 306.409 13.197 317.536 16.211 329.995 21.111 C 342.852 26.167 350.927 29.433 370.06 40.939 C 388.806 52.212 390.933 51.822 404.821 48.491 C 415.848 45.847 427.195 41.56 439.801 34.513 C 490.61 6.106 548.085 -1.263 594.695 13.517 C 619.331 21.329 643.014 37.067 662.007 58.734 C 670.951 68.937 682.146 87.547 687.241 97.669 C 704.458 131.875 707.955 175.757 693.933 217.66 C 685.093 244.078 671.288 264.681 655.171 275.444 C 651.326 278.011 647.703 281.927 646.464 284.432 C 645.416 286.55 643.474 289.736 641.504 292.038 C 637.906 296.241 628.183 300.879 625.348 302.118 C 623.642 302.864 624.005 312.449 626.242 330.636 L 628.757 342.588 L 634.398 350.272 C 641.156 357.61 641.713 359.562 645.139 369.288 C 646.539 373.264 649.338 378.062 651.762 380.585 C 657.165 386.208 658.774 388.632 659.25 396.143 C 659.585 401.43 658.129 402.598 656.484 405.205 C 652.408 411.668 646.707 413.899 640.019 410.292 L 639.766 409.815 Z M 653.487 405.227 C 658.837 399.876 657.177 390.192 649.476 381.838 C 647.128 379.29 644.596 375.097 643.523 371.979 C 642.496 368.995 640.642 364.566 639.403 362.137 C 636.757 356.951 630.379 349.051 629.351 349.687 C 626.45 351.48 622.455 334.573 621.702 317.312 C 621.048 302.325 622.089 303.658 612.91 306.057 C 610.71 306.632 607.17 307.113 605.043 307.127 C 601.816 307.146 601.271 307.44 601.746 308.901 C 605.592 320.727 606.574 325.602 606.733 333.651 C 606.889 341.612 606.608 343.228 604.295 347.651 C 600.155 355.566 600.008 356.646 602.896 357.962 C 605.623 359.205 606.309 362.852 604.21 364.951 C 603.277 365.884 603.353 366.151 604.555 366.151 C 606.498 366.151 609.802 369.707 609.026 370.963 C 608.707 371.479 605.4 373.715 601.678 375.931 C 593.801 380.622 591.093 383.273 588.958 388.383 C 586.585 394.062 586.94 399.361 589.877 402.12 C 592.048 404.159 593.018 404.368 597.955 403.858 C 604.911 403.14 608.411 401.012 608.411 397.499 C 608.411 396.066 609.873 392.365 611.661 389.273 C 613.448 386.182 616.036 381.448 617.411 378.752 C 620.657 372.389 622.425 371.275 625.783 373.475 C 628.953 375.552 631.513 383.672 631.803 392.567 C 631.949 397.048 632.561 399.51 633.959 401.25 C 640.118 408.911 648.165 410.55 653.488 405.227 L 653.487 405.227 Z M 568.126 390.979 C 566.545 388.841 565.91 386.573 565.91 383.066 C 565.91 380.362 565.53 378.15 565.065 378.15 C 563.298 378.15 558.652 382.193 555.968 386.066 C 551.454 392.58 553.798 394.899 564.302 394.313 L 570.341 393.976 L 568.126 390.979 Z M 497.09 376.082 C 498.635 375.494 503.108 371.902 507.03 368.1 C 515.153 360.223 519.657 357.967 532.757 355.215 C 537.791 354.157 541.561 353.26 541.134 353.221 C 540.708 353.182 541.045 351.822 541.884 350.2 C 543.681 346.725 543.976 338.795 542.287 339.358 C 541.669 339.564 539.027 337.673 536.416 335.156 C 531.116 330.048 530.035 326.812 528.894 312.65 C 528.54 308.25 527.498 303.075 526.58 301.15 C 525.661 299.225 524.843 297.508 524.762 297.335 C 524.53 296.842 512.16 294.066 511.801 294.426 C 511.624 294.602 512.609 297.541 513.988 300.956 C 516.964 308.325 520.41 321.348 520.41 325.228 C 520.41 327.336 519.526 328.534 516.66 330.309 C 513.419 332.317 511.215 332.701 500.41 333.141 C 489.435 333.588 488.62 333.733 493.732 334.335 C 497.997 334.837 500.215 335.682 502.03 337.496 C 503.837 339.304 504.172 340.179 503.27 340.736 C 502.591 341.156 492.064 341.773 479.878 342.108 C 456.286 342.755 455.839 342.849 449.66 348.456 C 446.827 351.027 446.432 356.745 449.16 355.682 C 458.58 352.011 472.611 350.173 496.16 349.528 C 522.152 348.816 522.884 350.202 499.387 355.636 C 488.437 358.169 483.472 360.096 478.263 363.833 C 471.308 368.825 470.994 370.849 476.717 373.808 C 483.264 377.194 491.69 378.134 497.09 376.081 L 497.09 376.082 Z M 60.73 198.252 C 99.92 180.874 126.694 170.125 148.913 162.849 C 179.636 152.789 195.532 149.483 217.648 148.557 C 230.968 147.999 233.651 147.594 238.705 145.378 C 245.802 142.265 249.413 138.273 249.413 133.537 C 249.413 129.296 247.249 125.829 242.941 123.167 C 238.645 120.511 235.905 120.618 225.557 123.844 C 210.58 128.514 199.178 127.141 197.436 120.459 C 196.962 118.638 192.594 120.531 150.912 140.623 C 95.475 167.346 68.02 181.091 68.708 181.778 C 68.989 182.059 70.95 181.415 73.066 180.347 C 80.189 176.752 111.781 164.393 128.408 158.696 C 148.692 151.747 162.283 148.083 182.413 144.138 C 201.702 140.357 215.22 136.251 227.128 130.556 C 237.484 125.603 238.908 125.337 240.376 128.079 C 241.841 130.818 239.731 132.606 228.941 137.771 C 218.008 143.004 204.676 146.863 181.319 151.555 C 149.41 157.965 108.077 172.079 68.429 190.105 C 55.232 196.104 33.493 207.94 29.165 211.481 C 27.928 212.493 27.365 213.105 27.915 212.841 C 28.465 212.577 43.233 206.011 60.732 198.251 L 60.73 198.252 Z M 302.39 130.564 C 312.483 127.567 319.638 121.277 324.139 111.447 C 332.248 93.734 323.089 72.098 304.498 65.049 C 299.799 63.268 297.531 63.02 290.131 63.478 C 282.548 63.949 280.628 64.459 276.131 67.205 C 270.504 70.64 269.602 71.474 264.617 77.847 C 259.665 84.177 258.096 89.845 258.627 99.479 C 259.143 108.845 262.027 115.691 267.952 121.616 C 271.367 125.031 279.268 129.636 284.419 131.212 C 288.677 132.515 296.809 132.223 302.391 130.565 L 302.39 130.564 Z M 276.8 125.78 C 270.576 122.84 268.417 119.978 268.422 114.676 C 268.433 103.04 281.457 98.292 289.69 106.922 C 295.094 112.586 295.893 119.524 291.668 124.089 C 287.777 128.294 283.22 128.812 276.8 125.78 Z M 284.418 118.603 C 284.418 116.55 279.942 112.148 277.855 112.148 C 276.557 112.148 276.344 112.739 276.864 114.898 C 277.229 116.411 278.264 118.211 279.164 118.898 C 281.433 120.631 284.418 120.463 284.418 118.603 Z" fill="#D58F4E"/>
      <path d="M 640.164 409.587 C 634.388 406.885 628.505 398.275 625.777 390.669 C 624.508 387.13 621.299 386.068 620.693 386.068 C 620.088 386.068 617.971 387.867 617.346 389.956 C 614.442 399.648 608.05 405.324 599.03 406.559 C 590.215 407.768 585.158 405.705 583.82 397.785 C 583.284 394.615 582.66 392.033 581.374 392.457 C 580.468 392.755 576.007 395.195 572.982 396.303 C 566.48 398.685 559.056 398.417 555.088 396.365 C 549.4 393.423 550.649 384.679 555.366 377.684 C 558.29 373.347 570.902 366.704 582.77 361.971 C 587.445 360.106 591.603 355.664 592.557 354.829 C 595.575 352.187 601.015 342.149 601.034 338.756 C 601.056 334.773 591.124 305.846 588.896 303.551 C 588.016 302.645 584.526 301.412 581.385 300.521 C 578.244 299.63 572.909 296.483 569.307 294.017 C 565.705 291.551 561.192 291.155 560.948 291.155 C 560.703 291.155 558.568 291.432 557.206 292.794 C 555.778 294.222 552.729 295.459 550.356 295.839 C 546.823 296.404 547.006 298.01 545.146 301.54 C 543.331 304.983 541.094 307.371 540.773 318.04 C 540.413 330.012 542.326 331.154 544.102 331.154 C 546.228 331.154 552.194 337.798 553.925 341.139 C 555.51 344.2 554.697 349.845 552.959 352.326 C 550.96 355.179 549.324 355.317 536.462 357.56 C 521.142 360.232 516.131 363.386 509.247 371.226 C 501.787 379.723 499.406 379.612 489.489 379.673 C 482.543 379.715 482.057 379.326 476.848 376.722 C 473.299 374.947 470.374 374.148 469.493 372.537 C 468.139 370.063 467.105 369.879 468.831 366.673 C 469.877 364.731 471.122 362.331 470.896 362.116 C 470.67 361.9 465.906 361.303 461.158 361.896 C 449.791 363.317 447.276 363.12 445.271 357.331 C 444.23 354.323 444.15 353.065 444.983 350.541 C 446.326 346.473 453.458 340.464 458.598 339.072 C 460.701 338.503 463.11 337.901 464.21 336.554 C 467.182 332.911 475.125 330.158 495.412 329.492 C 505.037 329.177 514.461 329.121 515.416 328.605 C 517.113 327.688 517.713 321.7 515.652 312.961 C 514.273 307.109 513.584 304.016 508.924 295.112 C 507.956 293.263 505.575 289.672 503.314 287.694 C 496.021 281.313 494.679 276.358 497.341 261.176 C 498.122 256.721 496.623 253.781 496.417 253.578 C 496.211 253.375 490.168 251.697 482.743 251.078 C 471.178 250.113 456.692 248.253 445.467 246.385 C 443.817 246.111 437.191 244.629 430.866 243.216 C 402.637 236.91 387.643 229.286 358.46 205.626 C 352.906 201.123 347.1 196.56 345.504 195.541 C 341.872 193.223 333.319 186.53 331.114 184.655 C 328.311 182.273 318.602 179.236 311.336 178.617 C 292.81 177.04 287.495 175.981 269.125 169.139 C 259.011 165.373 248.008 160.637 244.647 158.78 C 241.286 156.923 236.745 153.972 234.117 152.495 C 229.365 149.824 228.303 151.065 218.134 152.152 C 203.023 153.768 192.409 153.993 185.665 155.444 C 165.973 159.682 160.729 162.386 153.235 165.453 C 148.656 167.327 142.198 168.357 139.448 169.029 C 130.155 171.298 99.749 183.429 86.974 189.829 C 79.992 193.326 69.526 197.826 63.201 200.388 C 56.876 202.952 46.832 207.324 41.882 209.693 C 36.932 212.062 30.003 215.515 25.328 217.28 C 20.653 219.046 15.259 220.637 13.274 221.458 C 8.079 223.605 6.006 223.887 5.618 220.515 C 4.658 212.186 33.241 196.974 88.05 167.712 C 89.699 166.831 104.2 158.633 121.484 150.053 C 138.768 141.473 158.129 134.174 162.804 132.098 C 176.339 126.088 204.431 110.581 207.346 108.128 C 210.861 105.17 219.009 86.883 221.452 80.741 C 230.721 57.439 250.79 31.119 260.778 23.705 C 268.734 17.8 277.682 12.668 289.72 12.11 C 311.521 11.101 334.103 19.227 371.582 41.732 C 380.382 47.016 389.108 50.694 389.735 50.694 C 393.197 50.696 410.235 47.942 416.351 45.735 C 420.25 44.329 432.918 38.37 444.501 32.493 C 483.895 12.508 515.948 4.12 552.778 5.58 C 587.524 6.958 614.219 17.253 640.825 38.603 C 658.991 53.181 678.889 76.287 689.683 97.699 C 700.822 119.795 704.726 147.78 702.395 174.204 C 698.946 213.292 684.727 248.095 663.695 268.926 C 659.729 272.854 655.957 276.067 653.577 277.277 C 650.32 278.933 648.104 281.201 646.432 284.735 C 643.644 290.63 636.413 297.08 630.723 299.755 C 628.331 300.88 625.688 301.636 625.165 302.362 C 624.179 303.731 624.408 313.446 627.383 336.119 C 628.328 343.319 628.737 343.904 634.482 349.845 C 641.749 357.359 642.412 359.751 645.411 368.567 C 647.129 373.617 650.694 376.779 654.288 380.712 C 659.208 386.095 659.213 391.913 659.213 399.028 C 659.213 409.189 643.227 411.356 637.376 408.727 L 640.164 409.587 Z M 651.104 407.207 C 654.533 405.65 655.477 404.609 656.295 401.479 C 657.331 397.514 656.583 391.155 654.67 387.654 C 654.069 386.554 651.984 384.122 650.039 382.25 C 647.592 379.897 645.393 375.989 642.912 369.586 C 639.176 359.944 634.453 352.743 629.597 349.285 C 627.164 347.553 626.442 345.846 624.591 337.457 C 623.219 331.238 622.335 323.361 622.171 315.913 C 621.939 305.335 621.733 304.171 620.097 304.163 C 619.099 304.158 617.451 304.599 616.435 305.142 C 615.419 305.686 609.824 306.195 604.001 306.273 C 598.178 306.351 593.413 306.607 593.413 306.841 C 593.413 307.075 594.937 310.954 596.8 315.461 C 603.463 331.58 605.607 341.327 603.593 346.35 C 603.219 347.282 600.102 350.938 596.667 354.475 C 591.602 359.688 588.957 361.501 582.683 364.056 C 564.764 371.354 553.413 381.108 553.413 389.209 C 553.413 394.436 555.693 395.607 564.185 394.737 C 571.39 393.999 578.533 390.777 582.515 386.469 C 592.226 375.963 595.463 373.28 600.86 371.26 C 606.215 369.256 608.413 369.202 608.413 371.074 C 608.413 371.515 605.689 373.328 602.359 375.102 C 593.888 379.617 589.798 384.023 587.847 390.733 C 586.573 395.117 586.47 396.878 587.364 399.035 C 588.951 402.867 593.399 405.283 597.56 404.574 C 607.633 402.858 610.867 399.272 616.936 383.093 C 621.693 370.409 622.948 370.321 625.998 382.453 C 629.217 395.258 632.865 401.954 638.776 405.904 C 644.407 409.667 645.444 409.777 651.104 407.208 L 651.104 407.207 Z M 497.904 376.156 C 499.348 375.607 503.539 372.064 507.219 368.282 C 514.953 360.334 520.026 357.995 535.467 355.257 C 547.691 353.09 551.802 350.823 552.21 346.023 C 552.455 343.143 551.911 341.903 549.27 339.322 C 545.647 335.78 543.701 335.373 541.935 337.788 C 540.882 339.228 540.468 338.984 538.47 335.752 C 536.376 332.363 536.232 331.178 536.598 320.367 C 536.949 310.007 537.309 308.047 539.719 303.404 L 542.443 298.154 L 537.106 298.154 C 532.518 298.154 515.66 295.176 511.548 293.64 C 510.719 293.33 510.403 293.624 510.741 294.392 C 517.046 308.726 521.124 323.949 519.48 327.02 C 517.758 330.239 512.162 332.149 504.258 332.217 C 500.217 332.251 493.085 332.703 488.409 333.221 C 483.734 333.739 477.085 334.448 473.632 334.797 C 461.702 336.004 466.353 337.154 483.159 337.154 C 496.205 337.154 500.467 337.477 501.968 338.582 C 504.924 340.758 503.167 340.993 480.909 341.398 C 463 341.724 460.439 341.986 456.409 343.9 C 450.632 346.644 448.703 348.246 447.576 351.235 C 445.477 356.803 450.375 360.839 457.909 359.75 C 473.623 357.477 480.823 355.995 487.069 353.745 C 494.079 351.22 513.825 348.237 515.098 349.51 C 516.302 350.714 514.501 351.402 501.531 354.696 C 494.404 356.507 486.599 358.86 484.189 359.926 C 478.594 362.402 472.408 367.812 472.408 370.231 C 472.408 372.081 476.287 374.663 481.402 376.219 C 485.093 377.342 494.882 377.304 497.903 376.156 L 497.904 376.156 Z M 626.044 298.463 C 634.933 294.952 643.127 286.963 644.922 280.057 C 645.332 278.481 647.63 276.452 651.602 274.163 C 663.003 267.591 677.159 249.955 684.922 232.653 C 695.547 208.968 699.885 188.13 699.711 161.618 C 699.449 121.546 691.117 99.647 662.413 63.587 C 645.458 42.287 619.49 24.394 592.913 15.696 C 588.513 14.256 579.513 12.145 572.913 11.005 C 562.481 9.203 558.234 9.001 540.413 9.466 C 525.297 9.859 517.286 10.542 509.913 12.066 C 486.505 16.904 465.121 24.42 446.413 34.386 C 422.706 47.015 412.785 50.98 399.242 53.238 C 389.053 54.937 386.6 54.15 367.913 43.183 C 349.6 32.437 346.967 31.102 332.984 25.477 C 317.855 19.391 305.971 16.48 292.79 15.629 L 281.669 14.912 L 274.791 18.717 C 264.622 24.342 254.53 31.381 249.202 36.565 C 239.949 45.567 231.674 60.145 226.596 76.39 C 223.952 84.846 214.668 104.547 211.114 109.239 C 210.453 110.111 208 112.029 205.663 113.501 C 203.325 114.973 201.413 116.815 201.413 117.594 C 201.413 122.711 210.389 123.551 223.413 119.653 C 232.835 116.832 240.179 116.463 244.314 118.602 C 247.954 120.484 253.211 126.502 254.016 129.708 C 255.71 136.46 251.078 144.612 243.502 148.209 C 238.841 150.421 238.531 150.77 240.139 151.98 C 247.548 157.556 267.009 164.511 281.412 166.731 C 304.44 170.281 305.969 170.381 317.122 169.061 C 332.061 167.294 334.032 167.492 339.353 171.295 C 341.861 173.087 346.612 176.338 349.912 178.52 C 353.212 180.702 358.387 184.588 361.412 187.156 C 370.679 195.021 376.745 198.965 387.038 203.816 C 392.469 206.375 400.287 210.401 404.412 212.762 C 422.362 223.036 449.016 231.663 484.412 238.656 C 496.787 241.101 509.084 243.563 511.739 244.127 C 514.394 244.691 517.923 245.153 519.582 245.153 C 522.744 245.153 524.419 246.243 533.413 254.155 C 536.438 256.816 541.685 261.262 545.075 264.036 C 548.464 266.81 553.414 272.133 556.075 275.866 C 565.568 289.183 573.634 295.59 584.413 298.377 C 586.338 298.875 589.263 299.681 590.913 300.169 C 592.563 300.657 599.988 300.929 607.413 300.773 C 618.139 300.547 621.967 300.073 626.045 298.462 L 626.044 298.463 Z M 283.694 135.183 C 273.274 132.707 262.748 124.218 257.872 114.36 C 254.141 106.815 253.276 94.111 255.943 86.013 C 259.183 76.178 262.515 71.195 268.912 66.623 C 279.015 59.402 285.655 57.627 296.695 59.192 C 317.975 62.21 330.704 77.163 330.761 99.21 C 330.778 105.56 330.297 107.798 327.756 113.21 C 323.963 121.289 320.818 125.025 313.997 129.552 C 305.467 135.214 293.321 137.471 283.693 135.183 L 283.694 135.183 Z M 307.645 128.827 C 314.182 125.629 321.699 117.945 324.723 111.37 C 327.282 105.806 327.742 92.082 325.576 85.911 C 323.06 78.745 316.267 70.892 309.334 67.134 C 303.107 63.759 302.576 63.653 291.912 63.655 C 281.608 63.656 280.612 63.836 276.165 66.498 C 270.865 69.671 264.149 76.811 261.389 82.207 C 255.008 94.684 257.725 111.519 267.737 121.53 C 275.698 129.492 282.651 132.211 294.02 131.811 C 300.41 131.586 303.297 130.954 307.645 128.827 Z M 274.614 124.184 C 269.395 120.403 268.056 117.843 268.717 112.91 C 269.362 108.104 272.557 104.482 277.311 103.17 C 286.79 100.552 297.463 113.352 292.999 121.984 C 290.952 125.943 288.643 127.152 283.128 127.152 C 279.819 127.152 277.685 126.408 274.614 124.183 L 274.614 124.184 Z M 284.412 118.725 C 284.412 116.226 280.3 112.153 277.777 112.153 C 275.38 112.153 276.246 116.877 279.047 119.08 C 282.55 121.836 284.412 121.713 284.412 118.725 Z M 301.426 45.354 C 296.001 42.377 293.691 41.722 287.307 41.352 C 282.734 41.088 278.181 41.403 275.951 42.139 C 273.278 43.021 271.922 43.063 271.144 42.285 C 270.367 41.508 271.723 40.441 275.948 38.507 C 284.189 34.734 292.132 34.897 300.941 39.019 C 307.771 42.216 312.925 46.512 311.906 48.161 C 310.89 49.804 308.241 49.095 301.425 45.354 L 301.426 45.354 Z M 24.476 209.884 C 78.556 174.828 141.386 150.131 192.906 143.677 C 212.036 141.281 218.508 139.407 231.109 132.617 C 235.795 130.092 239.572 128.617 239.918 129.177 C 240.973 130.884 239.463 132.105 231.08 136.325 C 218.892 142.459 210.235 145.1 196.906 146.753 C 179.851 148.867 158.108 153.434 142.406 158.201 C 109.876 168.076 68.038 187.236 33.906 207.891 C 17.585 217.767 19.065 217.254 61.595 198.294 C 114.485 174.715 146.243 162.768 175.975 155.265 C 192.147 151.184 204.231 149.401 220.245 148.732 C 232.388 148.224 234.149 147.905 239.876 145.171 C 246.644 141.941 248.886 139.44 249.912 133.974 C 250.45 131.104 250.094 129.941 247.865 127.292 C 242.162 120.514 237.279 119.766 224.905 123.774 C 210.585 128.412 199.427 127.079 197.785 120.535 C 197.457 119.227 197.084 118.157 196.956 118.157 C 195.968 118.157 96.456 166.549 79.906 175.076 C 49.119 190.941 21.678 207.444 14.156 214.616 C 10.8 217.816 10.587 218.924 13.722 216.87 C 14.996 216.035 19.834 212.892 24.472 209.885 L 24.476 209.884 Z" fill="#B8662D"/>
      <path d="M640.464,412.09 C635.044,409.825 629.5,404.051 625.971,396.997 C624.013,393.083 622.41,389.266 622.41,388.514 C622.41,385.316 619.667,387.533 618.046,392.041 C616.07,397.538 610.56,404.503 606.546,406.579 C601.798,409.034 595.261,409.474 590.69,407.645 C585.984,405.762 583.865,403.093 582.871,397.796 C582.495,395.79 581.844,394.149 581.426,394.149 C581.007,394.149 578.545,395.087 575.954,396.233 C570.039,398.849 557.95,399.807 554.41,397.94 C550.63,395.947 548.197,390.477 548.836,385.409 C549.365,381.2 553.816,373.15 555.613,373.15 C556.128,373.15 558.431,371.864 560.73,370.291 C566.244,366.52 577.533,360.775 584.495,358.197 C587.567,357.06 590.98,355.122 592.079,353.89 C595.737,349.79 599.409,342.336 599.428,338.972 C599.448,335.27 589.877,307.584 587.685,305.003 C586.916,304.097 584.312,302.859 581.899,302.251 C578.133,301.303 573.367,298.78 563.023,292.259 C561.028,291.001 560.542,291.122 557.952,293.522 C556.355,295.003 553.338,296.457 551.135,296.809 C547.567,297.38 546.95,297.939 544.805,302.545 C542.73,307.002 542.428,309.14 542.419,319.399 C542.41,330.037 542.579,331.149 544.203,331.149 C546.209,331.149 553.475,337.534 555.255,340.862 C556.708,343.577 556.747,349.65 555.329,352.3 C553.821,355.117 549.074,356.873 538.228,358.623 C521.764,361.281 518.794,362.594 510.909,370.703 C502.959,378.88 499.843,380.757 492.637,381.713 C483.032,382.987 467.409,376.137 467.409,370.652 C467.409,369.72 468.173,367.665 469.106,366.084 C470.04,364.504 470.57,362.977 470.285,362.691 C469.999,362.406 466.198,362.679 461.837,363.298 C450.601,364.893 446.204,363.594 443.974,358.021 C441.814,352.624 443.218,348.137 448.24,344.388 C450.258,342.882 452.503,341.087 453.23,340.399 C453.957,339.712 455.669,339.149 457.036,339.149 C458.533,339.149 460.634,337.931 462.32,336.085 C466.329,331.696 474.174,330.166 496.216,329.476 C518.68,328.772 518.062,329.192 515.83,316.149 C513.746,303.974 507.989,292.609 501.999,288.848 C497.135,285.794 493.413,279.619 493.402,274.583 C493.398,272.969 494.15,267.712 495.072,262.902 C495.993,258.091 496.503,253.91 496.203,253.61 C495.903,253.31 490.314,252.637 483.784,252.113 C477.253,251.589 466.734,250.449 460.409,249.58 C454.084,248.712 447.784,247.847 446.409,247.66 C445.034,247.472 438.509,246.099 431.909,244.608 C401.621,237.768 387.051,230.197 356.909,205.636 C351.409,201.155 345.559,196.629 343.909,195.578 C339.335,192.667 332.145,187.364 329.909,185.252 C327.059,182.562 317.925,180.211 306.106,179.125 C300.498,178.61 293.659,177.796 290.909,177.314 C285.018,176.284 251.69,163.987 245.909,160.712 C243.709,159.466 238.984,156.745 235.409,154.667 L228.909,150.888 L220.857,152.018 C216.428,152.64 210.831,153.149 208.417,153.149 C197.757,153.149 160.498,161.631 151.409,166.128 C149.484,167.08 144.207,168.843 139.683,170.047 C126.754,173.485 101.891,183.318 84.149,192.008 C75.217,196.384 64.759,201.147 60.909,202.594 C57.059,204.04 50.759,206.754 46.909,208.626 C36.881,213.502 25.181,218.379 15.628,221.667 C7.999,224.293 7.22,224.39 5.729,222.899 C-1.141,216.029 26.322,197.201 87.051,167.15 C88.719,166.325 102.643,159.416 117.995,151.798 C133.347,144.179 148.608,136.694 151.908,135.165 C155.208,133.636 164.321,129.432 172.159,125.823 C190.213,117.511 205.738,108.817 208.265,105.605 C212.317,100.454 219.262,85.351 221.267,77.331 C223.774,67.305 230.749,52.23 236.815,43.729 C242.538,35.709 251.413,27.534 261.88,20.641 C266.465,17.622 270.509,15.151 270.867,15.151 C271.225,15.151 273.631,14.176 276.213,12.983 C293.092,5.189 328.738,14.29 364.028,35.402 C386.268,48.708 388.808,50.151 389.984,50.151 C393.713,50.151 408.729,46.631 416.221,44 C424.191,41.201 428.929,38.903 442.907,31.058 C460.875,20.973 488.37,11.509 512.407,7.136 C549.585,0.371 586.593,5.266 616.907,20.956 C648.532,37.324 681.883,74.464 695.354,108.314 C702.131,125.344 706.087,150.285 704.923,168.652 C702.337,209.477 687.354,247.413 665.426,268.652 C657.385,276.44 657.508,276.34 653.329,278.539 C650.89,279.822 649.033,281.934 647.494,285.175 C644.437,291.614 638.251,297.622 631.285,300.918 L625.507,303.652 L625.528,308.152 C625.552,313.234 626.811,326.29 628.26,336.475 C629.182,342.951 629.535,343.616 635.182,349.496 C641.531,356.107 644.073,360.368 646.909,369.152 C648.024,372.607 650.266,376.359 652.939,379.245 C658.997,385.785 660.712,389.612 660.817,396.822 C660.917,403.686 659.058,407.27 653.797,410.35 C650.047,412.547 643.572,413.393 640.46,412.093 z M650.812,407.754 C659.894,403.959 659.788,392.47 650.576,382.111 C647.904,379.107 645.138,374.848 644.431,372.648 C641.948,364.929 637.491,356.608 633.584,352.398 C631.414,350.061 629.197,348.148 628.657,348.148 C627.568,348.148 625.099,339.85 623.469,330.714 C622.887,327.451 622.411,319.86 622.411,313.847 C622.411,302.973 622.399,302.918 620.161,303.599 C612.754,305.853 608.963,306.29 600.786,305.833 L591.66,305.323 L595.142,313.486 C602.09,329.777 604.898,342.595 602.478,346.964 C601.965,347.89 599.125,351.226 596.168,354.376 C591.975,358.843 589.163,360.776 583.401,363.152 C560.501,372.595 548.546,384.599 553.901,392.772 C555.564,395.31 555.859,395.375 563.855,394.955 C575.09,394.365 578.84,392.182 589.118,380.241 C593.966,374.609 607.411,367.882 607.411,371.089 C607.411,371.606 604.677,373.487 601.335,375.268 C588.251,382.242 582.489,395.378 589.457,402.346 C592.306,405.195 592.833,405.348 597.613,404.714 C603.282,403.962 607.043,402.316 609.634,399.452 C611.712,397.156 617.724,384.285 619.468,378.397 C620.161,376.06 621.241,374.147 621.868,374.147 C622.496,374.147 624.034,378.056 625.287,382.833 C628.045,393.347 631.122,399.611 635.571,403.765 C641.655,409.446 644.794,410.267 650.812,407.752 z M495.782,377.063 C498.385,376.34 502.329,373.465 507.845,368.27 C515.237,361.307 516.769,360.336 523.477,358.362 C527.567,357.159 534.42,355.661 538.705,355.033 C551.266,353.195 555.767,348.601 552.051,341.413 C551.235,339.836 548.927,337.669 546.92,336.597 C543.473,334.755 543.202,334.743 541.993,336.384 C540.825,337.968 540.561,337.837 538.971,334.884 C537.534,332.215 537.289,329.63 537.571,320.138 C537.866,310.231 538.268,307.912 540.462,303.487 L543.01,298.345 L535.462,297.669 C531.31,297.297 523.885,296.127 518.961,295.07 C514.037,294.013 509.902,293.148 509.773,293.148 C509.645,293.148 510.805,295.96 512.352,299.398 C516.128,307.789 518.436,316.11 518.698,322.278 C518.888,326.763 518.593,327.61 516.209,329.419 C513.908,331.165 511.298,331.593 498.709,332.29 C481.245,333.257 468.118,334.595 466.543,335.568 C463.242,337.609 466.756,338.148 483.355,338.148 C494.237,338.148 501.539,338.541 501.914,339.148 C502.254,339.698 502.393,340.206 502.223,340.277 C502.053,340.348 492.239,340.707 480.414,341.074 C461.029,341.675 458.505,341.955 454.759,343.916 C447.13,347.911 444.512,353.577 448.194,358.123 C449.451,359.676 451.137,360.348 453.944,360.415 C461.194,360.588 477.341,358.068 481.896,356.053 C488.001,353.352 502.72,350.196 509.331,350.169 C512.31,350.157 514.551,350.345 514.31,350.586 C514.069,350.826 507.885,352.603 500.568,354.533 C493.25,356.463 485.328,358.98 482.962,360.125 C478.037,362.509 471.137,368.813 471.677,370.434 C472.355,372.468 477.228,375.409 482.082,376.714 C488.15,378.345 490.911,378.415 495.783,377.062 z M620.572,300.615 C629.57,298.722 636.948,293.92 641.898,286.733 C643.83,283.927 645.412,281.107 645.412,280.466 C645.412,279.826 648.456,277.278 652.177,274.804 C675.188,259.507 693.505,225.186 699.33,186.457 C700.94,175.756 700.696,145.038 698.921,134.859 C695.809,117.017 689.138,100.763 677.721,83.204 C658.484,53.62 634.292,32.188 606.549,20.156 C587.887,12.062 573.962,9.159 550.411,8.454 C529.918,7.841 516.451,9.366 495.962,14.621 C474.617,20.095 462.633,25.004 433.412,40.244 C419.569,47.463 411.109,50.469 398.443,52.665 L389.974,54.133 L383.625,51.162 C380.133,49.528 372.694,45.402 367.094,41.993 C347.885,30.3 323.834,20.177 307.002,16.7 C302.874,15.847 295.133,15.15 289.8,15.15 C280.504,15.15 279.831,15.301 273.508,18.812 C252.387,30.538 241.892,41.016 232.607,59.65 C230.414,64.05 227.391,71.7 225.889,76.65 C223.183,85.568 216.493,100.048 211.808,107.128 C210.471,109.148 207.585,111.809 205.394,113.04 C200.59,115.74 200.015,119.189 203.941,121.761 C207.118,123.843 213.482,123.221 225.346,119.67 C229.976,118.284 235.08,117.15 236.687,117.15 C240.937,117.15 245.866,119.803 249.888,124.256 C252.881,127.569 253.412,128.874 253.412,132.921 C253.412,139.473 249.973,144.329 242.746,147.983 L237.156,150.809 L243.548,154.846 C261.967,166.479 288.171,175.103 305.292,175.167 C312.387,175.194 323.15,177.807 328.09,180.702 C331.451,182.671 359.476,203.013 366.912,208.879 C382.204,220.944 399.461,230.102 416.412,235.147 C428.443,238.728 457.845,244.984 465.912,245.68 C473.594,246.342 501.251,251.656 502.258,252.663 C502.526,252.931 501.862,253.15 500.782,253.15 C499.132,253.15 498.627,254.269 497.616,260.168 C496.954,264.029 496.412,269.864 496.412,273.135 C496.412,278.58 496.703,279.375 499.851,282.522 C506.401,289.073 523.346,293.578 541.597,293.622 C553.113,293.65 553.324,293.609 556.273,290.784 L559.265,287.917 L554.41,281.284 C551.74,277.635 546.789,271.95 543.408,268.651 C540.027,265.351 536.584,261.367 535.757,259.797 L534.254,256.944 L537.406,258.797 C543.305,262.267 551.276,270.182 557.748,279 C568.338,293.428 573.538,296.745 592.413,301.111 C598.348,302.484 612.912,302.229 620.573,300.617 z M285.452,135.055 C273.714,132.754 263.399,124.573 258.081,113.348 C255.24,107.352 254.906,105.693 254.906,97.572 C254.906,88.884 255.091,88.125 259.227,79.777 C263.805,70.539 266.589,67.787 276.906,62.304 C281.387,59.923 282.945,59.653 291.906,59.702 C300.528,59.748 302.699,60.12 307.659,62.398 C314.614,65.592 323.231,73.497 326.143,79.354 C328.95,85.001 330.789,95.987 330.135,103.202 C328.768,118.277 315.294,132.033 298.932,135.058 C292.322,136.28 291.699,136.28 285.451,135.055 z M308.191,128.791 C315.189,125.2 321.011,119.223 324.259,112.296 C326.553,107.401 326.902,105.38 326.87,97.148 C326.837,88.775 326.507,87.02 324.085,82.362 C318.473,71.568 310.213,65.363 298.528,63.163 C271.548,58.084 249.334,86.649 260.795,111.684 C264.941,120.74 271.884,127.075 281.486,130.562 C288.478,133.101 301.468,132.239 308.191,128.79 z M276.247,125.126 C268.71,121.144 266.477,114.825 270.357,108.462 C274.646,101.427 282.381,101.02 289.176,107.473 C293.496,111.576 294.953,116.904 293.02,121.531 C292.226,123.432 290.667,125.473 289.557,126.068 C286.478,127.715 280.324,127.28 276.247,125.126 z M284.407,118.687 C284.407,115.863 280.891,112.148 278.218,112.148 C277.002,112.148 276.412,112.887 276.422,114.398 C276.441,117.129 277.276,118.461 279.907,119.953 C283.047,121.734 284.407,121.351 284.407,118.686 z M304.335,46.103 C297.147,41.535 289.109,39.88 279.751,41.042 C275.454,41.575 271.822,41.895 271.679,41.753 C271.537,41.611 273.555,40.405 276.164,39.073 C285.407,34.354 300.463,36.909 308.769,44.607 C314.176,49.618 311.362,50.568 304.335,46.103 z M23.265,211.663 C55.749,190.441 98.889,169.48 133.595,158.056 C155.086,150.981 170.927,147.439 195.683,144.177 C211.236,142.126 221.955,138.811 232.996,132.637 C236.525,130.663 239.412,129.511 239.412,130.077 C239.412,131.572 230.148,136.671 220.912,140.26 C212.832,143.4 206.652,144.675 185.03,147.665 C145.62,153.114 95.925,171.651 48.91,198.44 C32.991,207.511 19.49,216.104 21.12,216.128 C21.785,216.138 35.06,210.478 50.62,203.551 C142.104,162.822 182.53,149.878 220.35,149.209 C229.853,149.041 232.804,148.595 237.77,146.577 C244.431,143.871 246.948,141.938 249.011,137.948 C251.875,132.409 250.512,128.428 244.024,123.387 C240.191,120.409 234.739,120.479 223.812,123.645 C218.901,125.068 212.616,126.145 209.22,126.145 C203.96,126.145 202.909,125.8 200.332,123.222 C198.724,121.614 197.409,119.636 197.409,118.827 C197.409,117.263 161.193,134.269 100.909,164.141 C43.861,192.409 14.919,209.719 10.314,218.323 C9.348,220.127 9.445,220.196 11.438,219.129 C12.637,218.488 17.959,215.127 23.264,211.661 z" fill="#15100A"/>
    </g>
  </g>
</svg>